<svg xmlns="http://www.w3.org/2000/svg" viewBox="0 0 512 512" style="enable-background:new 0 0 512 512" xml:space="preserve">
  <path style="fill:#7dbb34" d="M170.489 238.898h171.023v205.228H170.489z"/>
  <path style="fill:#60a333" d="M170.489 238.898h17.102v205.228h-17.102z"/>
  <path style="fill:#a6de64" d="M264.551 238.898h25.653v205.228h-25.653z"/>
  <path style="fill:#60a333" d="M170.489 238.898h171.023v42.756H170.489z"/>
  <path style="fill:#7dbb34" d="M136.284 196.142h239.432v68.409H136.284z"/>
  <path style="fill:#a6de64" d="M136.284 196.142h239.432v68.409H136.284z"/>
  <path style="fill:#60a333" d="M136.284 196.142h17.102v68.409h-17.102z"/>
  <path style="fill:#7dbb34" d="M153.386 196.142h128.267v68.409H153.386zm153.921 0h68.409v68.409h-68.409z"/>
  <path style="fill:#f9d84e" d="M281.653 8.017h-51.307v153.921h51.307c18.891 0 34.205-34.456 34.205-76.96S300.544 8.017 281.653 8.017z"/>
  <path style="fill:#ffe88a" d="M230.347 102.079H315c.556-5.503.858-11.221.858-17.102s-.302-11.6-.858-17.102h-84.653v34.204z"/>
  <ellipse style="fill:#ffc20d" cx="230.347" cy="84.977" rx="34.205" ry="76.96"/>
  <path style="fill:#fd5e95" d="M42.221 401.37h85.511v51.307H42.221z"/>
  <path style="fill:#d14d7b" d="M59.324 435.574V401.37H42.221v51.306h85.512v-17.102z"/>
  <path style="fill:#fd5e95" d="M127.733 401.37h85.511v51.307h-85.511z"/>
  <path style="fill:#d14d7b" d="M144.835 435.574V401.37h-17.102v51.306h85.511v-17.102z"/>
  <path style="fill:#fd5e95" d="M213.244 401.37h85.511v51.307h-85.511z"/>
  <path style="fill:#d14d7b" d="M230.347 435.574V401.37h-17.103v51.306h85.512v-17.102z"/>
  <path style="fill:#fd5e95" d="M298.756 401.37h85.511v51.307h-85.511z"/>
  <path style="fill:#d14d7b" d="M315.858 435.574V401.37h-17.102v51.306h85.511v-17.102z"/>
  <path style="fill:#fd5e95" d="M384.267 401.37h85.511v51.307h-85.511z"/>
  <path style="fill:#d14d7b" d="M401.37 435.574V401.37h-17.103v51.306h85.512v-17.102z"/>
  <path style="fill:#fd5e95" d="M84.977 452.676h85.511v51.307H84.977z"/>
  <path style="fill:#d14d7b" d="M102.079 486.881v-34.205H84.977v51.307h85.512v-17.102z"/>
  <path style="fill:#fd5e95" d="M170.489 452.676H256v51.307h-85.511z"/>
  <path style="fill:#d14d7b" d="M187.591 486.881v-34.205h-17.102v51.307H256v-17.102z"/>
  <path style="fill:#fd5e95" d="M256 452.676h85.511v51.307H256z"/>
  <path style="fill:#d14d7b" d="M273.102 486.881v-34.205H256v51.307h85.511v-17.102z"/>
  <path style="fill:#fd5e95" d="M341.511 452.676h85.511v51.307h-85.511z"/>
  <path style="fill:#d14d7b" d="M358.614 486.881v-34.205h-17.103v51.307h85.512v-17.102z"/>
  <path style="fill:#fd5e95" d="M427.023 452.676h68.409v51.307h-68.409z"/>
  <path style="fill:#d14d7b" d="M444.125 486.881v-34.205h-17.102v51.307h68.409v-17.102z"/>
  <path style="fill:#fd5e95" d="M16.568 452.676h68.409v51.307H16.568z"/>
  <path style="fill:#d14d7b" d="M33.67 486.881v-34.205H16.568v51.307h68.409v-17.102z"/>
  <path d="M230.347 169.954h51.307c24.07 0 42.221-36.533 42.221-84.977S305.724 0 281.653 0h-51.307c-24.07 0-42.221 36.533-42.221 84.977s18.151 84.977 42.222 84.977zm77.494-84.977c0 42.715-15.253 68.944-26.188 68.944h-26.008c10.401-15.177 16.923-39.917 16.923-68.944s-6.521-53.766-16.923-68.944h26.008c10.935 0 26.188 26.229 26.188 68.944zm-77.494-68.944c10.935 0 26.188 26.229 26.188 68.944s-15.253 68.944-26.188 68.944c-10.935 0-26.188-26.229-26.188-68.944s15.253-68.944 26.188-68.944z"/>
  <path d="M222.33 118.647v9.086c0 4.428 3.589 8.017 8.017 8.017s8.017-3.588 8.017-8.017v-9.086h.534a8.017 8.017 0 0 0 8.017-8.017V84.977a8.017 8.017 0 0 0-8.017-8.017h-9.086v-9.62h9.086c4.427 0 8.017-3.588 8.017-8.017s-3.589-8.017-8.017-8.017h-.534V42.22c0-4.428-3.589-8.017-8.017-8.017s-8.017 3.588-8.017 8.017v9.086h-.534a8.017 8.017 0 0 0-8.017 8.017v25.653a8.017 8.017 0 0 0 8.017 8.017h9.086v9.62h-9.086a8.017 8.017 0 0 0-8.017 8.017 8.017 8.017 0 0 0 8.017 8.017h.534zM495.432 444.66h-17.637v-43.29a8.016 8.016 0 0 0-8.017-8.017h-25.653c-4.428 0-8.017 3.588-8.017 8.017s3.588 8.017 8.017 8.017h17.637v35.273h-69.478v-35.273h17.637c4.428 0 8.017-3.588 8.017-8.017s-3.588-8.017-8.017-8.017h-60.392V272.568h26.188a8.016 8.016 0 0 0 8.017-8.017v-68.409a8.016 8.016 0 0 0-8.017-8.017H136.284a8.017 8.017 0 0 0-8.017 8.017v68.409a8.017 8.017 0 0 0 8.017 8.017h26.188v26.184c0 4.428 3.589 8.017 8.017 8.017s8.017-3.588 8.017-8.017v-26.184h154.99v120.785H178.507v-60.391c0-4.428-3.589-8.017-8.017-8.017s-8.017 3.588-8.017 8.017v60.391H42.221a8.017 8.017 0 0 0-8.017 8.017v43.29H16.568a8.017 8.017 0 0 0-8.017 8.017v51.307a8.017 8.017 0 0 0 8.017 8.017h478.864a8.016 8.016 0 0 0 8.017-8.017v-51.307a8.015 8.015 0 0 0-8.017-8.017zM144.301 204.159H367.7v52.376H144.301v-52.376zm231.95 205.227v35.273h-69.478v-35.273h69.478zm-85.512 35.274h-69.478v-35.273h69.478v35.273zm-85.511-35.274v35.273H135.75v-35.273h69.478zm-154.99 0h69.478v35.273H50.238v-35.273zm-25.653 51.307H76.96v35.273H24.585v-35.273zm68.409 0h69.478v35.273H92.994v-35.273zm85.511 0h69.478v35.273h-69.478v-35.273zm85.512 0h69.478v35.273h-69.478v-35.273zm85.511 0h69.478v35.273h-69.478v-35.273zm137.887 35.274H435.04v-35.273h52.376v35.273z"/>
</svg>
