<svg xmlns="http://www.w3.org/2000/svg" viewBox="0 0 240 240" style="enable-background:new 0 0 392.533 392.533" xml:space="preserve" width="240" height="240"><path style="fill:#194f82" d="M22.332 124.072c3.834.434 6.996-2.648 7.352-5.89 1.66-15.296 7.234-29.96 16.126-42.412 2.134-2.964 1.462-7.194-1.542-9.288-2.964-2.134-7.194-1.462-9.288 1.542C24.744 82.292 18.378 99.13 16.442 116.68c-.434 3.636 2.214 6.956 5.89 7.392z"/><path style="fill:#fff" d="M120 13.32c-23.756 0-43.122 19.368-43.122 43.122 0 8.024 2.254 15.574 6.126 22.016 10.198-8.894 23.28-13.952 37.036-13.952s26.798 5.06 37.036 13.952c3.874-6.482 6.126-13.992 6.126-22.056-.08-23.714-19.408-43.082-43.202-43.082z"/><path style="fill:#56ace0" d="M91.462 88.774c7.588 6.76 17.59 10.87 28.538 10.87s20.948-4.11 28.538-10.87c-7.826-6.956-17.906-10.87-28.538-10.87a42.94 42.94 0 0 0-28.538 10.87z"/><path style="fill:#ffc10d" d="M120 30.948c-4.426 0-8.024 3.596-8.024 8.024s3.596 8.024 8.024 8.024c4.426 0 8.024-3.596 8.024-8.024s-3.598-8.024-8.024-8.024z"/><path style="fill:#194f82" d="M120 17.59c-11.818 0-21.384 9.604-21.384 21.384S108.22 60.358 120 60.358s21.384-9.604 21.384-21.384S131.818 17.59 120 17.59zm0 29.406c-4.426 0-8.024-3.596-8.024-8.024s3.596-8.024 8.024-8.024c4.426 0 8.024 3.596 8.024 8.024s-3.598 8.024-8.024 8.024z"/><path style="fill:#ffc10d" d="M155.02 215.81c7.588 6.72 17.59 10.83 28.498 10.83 10.908 0 20.87-4.11 28.498-10.83-7.826-6.956-17.906-10.87-28.498-10.87s-20.672 3.992-28.498 10.87z"/><path style="fill:#fff" d="M183.558 140.356c-23.794 0-43.122 19.368-43.122 43.122 0 8.064 2.254 15.574 6.126 22.056 10.198-8.932 23.242-13.992 36.996-13.992s26.798 5.06 36.996 13.952c3.874-6.482 6.126-13.992 6.126-22.056 0-23.714-19.368-43.082-43.122-43.082z"/><path style="fill:#56ace0" d="M183.558 157.984c-4.426 0-8.064 3.596-8.064 8.024s3.636 8.064 8.064 8.064 8.024-3.636 8.024-8.064c-.002-4.426-3.598-8.024-8.024-8.024z"/><path style="fill:#194f82" d="M183.558 144.624c-11.818 0-21.384 9.604-21.384 21.384 0 11.818 9.604 21.384 21.384 21.384 11.778 0 21.384-9.604 21.384-21.384-.04-11.74-9.646-21.384-21.384-21.384zm0 29.488c-4.426 0-8.064-3.636-8.064-8.064s3.636-8.024 8.064-8.024 8.024 3.596 8.024 8.024c-.002 4.426-3.598 8.064-8.024 8.064z"/><path style="fill:#fff" d="M56.442 140.356c-23.794 0-43.122 19.368-43.122 43.122 0 8.024 2.254 15.574 6.126 22.016 10.198-8.894 23.28-13.952 37.036-13.952s26.838 5.02 37.036 13.952c3.874-6.482 6.126-13.992 6.126-22.016 0-23.754-19.368-43.122-43.202-43.122z"/><path style="fill:#ffc10d" d="M27.984 215.81c7.588 6.76 17.59 10.87 28.538 10.87 10.908 0 20.87-4.11 28.538-10.87-7.826-6.956-17.906-10.87-28.538-10.87s-20.712 3.914-28.538 10.87z"/><path style="fill:#56ace0" d="M56.442 157.984c-4.426 0-8.024 3.596-8.024 8.024s3.596 8.064 8.024 8.064 8.024-3.636 8.024-8.064c.04-4.426-3.556-8.024-8.024-8.024z"/><path style="fill:#194f82" d="M56.442 144.624c-11.818 0-21.384 9.604-21.384 21.384 0 11.818 9.604 21.384 21.384 21.384s21.384-9.604 21.384-21.384c.04-11.74-9.566-21.384-21.384-21.384zm0 29.488c-4.426 0-8.024-3.636-8.024-8.064s3.596-8.024 8.024-8.024 8.024 3.596 8.024 8.024c.04 4.426-3.556 8.064-8.024 8.064zm152.056-55.97c.394 3.242 3.478 6.324 7.352 5.89 3.636-.394 6.284-3.676 5.89-7.352-1.936-17.59-8.3-34.388-18.538-48.696-2.134-2.964-6.284-3.676-9.288-1.542-2.964 2.134-3.676 6.284-1.542 9.288 8.854 12.412 14.466 27.116 16.126 42.412zM120 0C88.854 0 63.558 25.336 63.558 56.442S88.854 112.924 120 112.924s56.442-25.336 56.442-56.482S151.146 0 120 0zm0 99.644c-10.948 0-20.948-4.11-28.538-10.87 7.826-6.956 17.906-10.87 28.538-10.87a42.934 42.934 0 0 1 28.538 10.87c-7.59 6.72-17.59 10.87-28.538 10.87zm0-35.06c-13.754 0-26.798 5.06-37.036 13.952-3.874-6.482-6.126-13.992-6.126-22.016 0-23.794 19.368-43.122 43.122-43.122 23.794 0 43.122 19.368 43.122 43.122 0 8.064-2.254 15.574-6.126 22.056-10.158-8.932-23.2-13.992-36.956-13.992zm63.558 62.452c-31.146 0-56.442 25.336-56.442 56.442S152.372 240 183.558 240C214.704 240 240 214.664 240 183.558s-25.336-56.522-56.442-56.522zm0 99.644c-10.908 0-20.87-4.11-28.498-10.83 7.826-6.916 17.906-10.87 28.498-10.87 10.592 0 20.632 3.952 28.498 10.87-7.628 6.72-17.59 10.83-28.498 10.83zm0-35.06c-13.754 0-26.798 5.06-36.996 13.992-3.874-6.482-6.126-13.992-6.126-22.056 0-23.794 19.368-43.122 43.122-43.122 23.756 0 43.122 19.368 43.122 43.122 0 8.064-2.254 15.574-6.126 22.056-10.238-8.932-23.32-13.992-36.996-13.992z"/><path style="fill:#194f82" d="M56.442 127.036C25.296 127.036 0 152.372 0 183.558S25.336 240 56.442 240s56.442-25.336 56.442-56.442-25.256-56.522-56.442-56.522zm0 99.644c-10.948 0-20.948-4.11-28.538-10.87 7.826-6.956 17.906-10.87 28.538-10.87a42.934 42.934 0 0 1 28.538 10.87c-7.588 6.76-17.55 10.87-28.538 10.87zm0-35.06c-13.754 0-26.798 5.06-37.036 13.952-3.874-6.482-6.126-13.992-6.126-22.016 0-23.794 19.368-43.122 43.122-43.122s43.122 19.368 43.122 43.122c0 8.064-2.254 15.574-6.126 22.016-10.118-8.892-23.2-13.952-36.956-13.952z"/></svg>