<svg xmlns="http://www.w3.org/2000/svg" viewBox="0 0 512 512" style="enable-background:new 0 0 512 512" xml:space="preserve">
  <path style="fill:#6dabe4" d="M255.999 42.881h-78.037c-27.641 0-50.048 22.407-50.048 50.048s22.407 50.048 50.048 50.048h78.037V42.881z"/>
  <path style="fill:#99daea" d="M255.999 42.881h78.037c27.641 0 50.048 22.407 50.048 50.048s-22.407 50.048-50.048 50.048h-78.037V42.881z"/>
  <path style="fill:#e8e8e8" d="M489.254 183.338H22.746c-8.141 0-14.74 6.6-14.74 14.74V459.62a9.5 9.5 0 0 0 9.5 9.5h476.99a9.5 9.5 0 0 0 9.5-9.5V198.079c-.001-8.141-6.601-14.741-14.742-14.741z"/>
  <path style="fill:#77e0c1" d="M503.995 261.518H8.005v-63.439c0-8.141 6.6-14.74 14.74-14.74h466.508c8.141 0 14.74 6.6 14.74 14.74v63.439z"/>
  <path style="fill:#6dabe4" d="M86.013 307.057H8.005v56.926h78.009c5.832 0 10.56-4.727 10.56-10.56v-35.807c0-5.832-4.727-10.559-10.561-10.559zm98.739 41.591h142.495v120.475H184.752z"/>
  <path style="opacity:.1;enable-background:new" d="M247.994 348.638h16.011v120.475h-16.011z"/>
  <path style="opacity:.2;enable-background:new" d="M184.752 348.648h142.495v16.94H184.752z"/>
  <path style="opacity:.2;enable-background:new" d="M40.86 450.481a9.5 9.5 0 0 1-9.5-9.5V183.338h-8.615c-8.141 0-14.74 6.6-14.74 14.74V459.62a9.5 9.5 0 0 0 9.5 9.5h476.99a9.5 9.5 0 0 0 9.5-9.5v-9.139H40.86z"/>
  <path style="fill:#fff" d="M312.57 230.433H199.429a8.004 8.004 0 0 1-8.005-8.005 8.004 8.004 0 0 1 8.005-8.005H312.57a8.004 8.004 0 0 1 8.005 8.005 8.002 8.002 0 0 1-8.005 8.005z"/>
  <path style="fill:#77e0c1" d="M350.636 313.966H161.364a9.26 9.26 0 0 0-9.259 9.259v16.159a9.26 9.26 0 0 0 9.259 9.259h189.272a9.26 9.26 0 0 0 9.259-9.259v-16.159c.001-5.113-4.145-9.259-9.259-9.259z"/>
  <path style="opacity:.1;enable-background:new" d="M171.956 339.646a9.26 9.26 0 0 1-9.259-9.259v-16.159c0-.089.011-.174.013-.262h-1.347a9.26 9.26 0 0 0-9.259 9.259v16.159a9.26 9.26 0 0 0 9.259 9.259h189.272c5.025 0 9.107-4.007 9.247-8.998H171.956z"/>
  <path d="M371.628 284.862h32.518v16.011h-32.518zm68.472 46.783h32.518v16.011H440.1zm-55.556 36.099h32.517v16.011h-32.517zM89.425 277.166h32.517v16.011H89.425zm126.964 1.975h32.518v16.011h-32.518zm-108.467 88.603h32.517v16.011h-32.517z" style="opacity:.2"/>
  <path style="fill:#4c9462" d="M51.903 408.934h90.678c6.438 0 11.658 5.219 11.658 11.658v32.856c0 6.438-5.219 11.658-11.658 11.658H51.903c-6.438 0-11.658-5.219-11.658-11.658v-32.856c0-6.439 5.22-11.658 11.658-11.658z"/>
  <path style="fill:#65513c" d="M40.245 442.684h113.996v26.434H40.245z"/>
  <path style="opacity:.15;enable-background:new" d="M60.6 457.169a6.27 6.27 0 0 1-6.27-6.27v-41.966h-2.427c-6.438 0-11.658 5.219-11.658 11.658v48.528h113.993v-11.95H60.6z"/>
  <path style="fill:#4c9462" d="M369.419 408.934h90.678c6.438 0 11.658 5.219 11.658 11.658v32.856c0 6.438-5.219 11.658-11.658 11.658h-90.678c-6.438 0-11.658-5.219-11.658-11.658v-32.856c0-6.439 5.219-11.658 11.658-11.658z"/>
  <path style="fill:#65513c" d="M357.763 442.684h113.996v26.434H357.763z"/>
  <path style="opacity:.15;enable-background:new" d="M378.116 457.169a6.27 6.27 0 0 1-6.27-6.27v-41.966h-2.427c-6.438 0-11.658 5.219-11.658 11.658v48.528h113.993v-11.95h-93.638z"/>
  <path style="opacity:.2;enable-background:new" d="M347.633 130.17H191.559c-27.641 0-50.048-22.407-50.048-50.048a49.815 49.815 0 0 1 9.54-29.38c-13.908 8.891-23.136 24.457-23.136 42.188 0 27.641 22.407 50.048 50.048 50.048h156.074c16.661 0 31.411-8.148 40.508-20.67a49.79 49.79 0 0 1-26.912 7.862z"/>
  <path style="fill:#1e252b" d="M489.254 175.332H329.548v-24.348h4.488c32.011 0 58.055-26.043 58.055-58.055 0-32.011-26.043-58.054-58.055-58.054H177.963c-32.011 0-58.054 26.042-58.054 58.054 0 32.011 26.043 58.055 58.054 58.055h4.488v24.348H22.746C10.204 175.332 0 185.536 0 198.079V459.62c0 9.652 7.853 17.504 17.505 17.504h476.99c9.652 0 17.505-7.852 17.505-17.504V198.079c0-12.543-10.203-22.747-22.746-22.747zM264.005 50.888h70.031c23.183 0 42.044 18.861 42.044 42.043 0 23.183-18.861 42.044-42.044 42.044h-70.031V50.888zm49.532 100.096v24.348H198.462v-24.348h115.075zm-135.574-16.011c-23.182 0-42.043-18.861-42.043-42.044 0-23.182 18.861-42.043 42.043-42.043h70.032v84.086h-70.032v.001zM16.011 315.062h70.003a2.558 2.558 0 0 1 2.555 2.555v35.807a2.558 2.558 0 0 1-2.555 2.555H16.011v-40.917zm130.223 146.052H48.251v-10.423h97.982v10.423h.001zm0-26.433H48.251v-14.089a3.656 3.656 0 0 1 3.651-3.653h90.678a3.657 3.657 0 0 1 3.653 3.653v14.089h.001zm173.011 26.433h-126.49V356.649h126.489v104.465zM161.364 340.638a1.255 1.255 0 0 1-1.254-1.254v-16.159c0-.691.563-1.254 1.254-1.254h189.272c.692 0 1.255.563 1.255 1.254v16.159c0 .691-.563 1.254-1.255 1.254H161.364zm302.384 120.476h-97.982v-10.423h97.982v10.423zm0-26.433h-97.982v-14.089a3.656 3.656 0 0 1 3.651-3.653h90.678a3.657 3.657 0 0 1 3.653 3.653v14.089zm32.241 24.939c0 .824-.67 1.493-1.494 1.493h-14.736V420.59c0-10.842-8.821-19.663-19.663-19.663h-90.678c-10.841 0-19.662 8.821-19.662 19.663v40.523h-14.5V356.648h15.38c9.52 0 17.266-7.745 17.266-17.265v-16.159c0-9.52-7.746-17.265-17.266-17.265H161.364c-9.52 0-17.265 7.745-17.265 17.265v16.159c0 9.52 7.745 17.265 17.265 17.265h15.381v104.465h-14.5V420.59c0-10.842-8.821-19.663-19.663-19.663H51.903c-10.842 0-19.662 8.821-19.662 19.663v40.523H17.505c-.824 0-1.494-.67-1.494-1.493v-87.632h70.003c10.237 0 18.566-8.329 18.566-18.566v-35.807c0-10.237-8.329-18.566-18.566-18.566H16.011V198.077a6.743 6.743 0 0 1 6.735-6.736h466.508a6.744 6.744 0 0 1 6.736 6.736V459.62h-.001z"/>
</svg>
