<svg xmlns="http://www.w3.org/2000/svg" viewBox="0 0 512 512" style="enable-background:new 0 0 512 512" xml:space="preserve"><path style="fill:#ffd652" d="M488.149 90.104H189.217c-13.152 0-23.851 10.699-23.851 23.851v184.447c0 13.152 10.699 23.851 23.851 23.851h298.932c13.152 0 23.851-10.699 23.851-23.851V113.954c0-13.151-10.699-23.85-23.851-23.85z"/><path style="fill:#fb9d46" d="M189.217 90.104c-13.152 0-23.851 10.699-23.851 23.851v184.447c0 13.152 10.699 23.851 23.851 23.851h130.385V90.104H189.217z"/><path style="fill:#fff" d="M230.029 254.94h219.429a7.95 7.95 0 0 0 7.95-7.95v-22.261a7.95 7.95 0 0 0-7.95-7.95H230.029a7.95 7.95 0 0 0-7.95 7.95v22.261a7.95 7.95 0 0 0 7.95 7.95z"/><path style="fill:#e5e5e5" d="M222.079 216.778h97.524v38.161h-97.524z"/><path style="fill:#5ac779" d="M173.317 151.056H512v42.402H173.317z"/><path style="fill:#00a085" d="M173.317 151.056h146.286v42.402H173.317z"/><path style="fill:#fb9d46" d="M448.928 288.331H347.164a7.95 7.95 0 0 1 0-15.9h101.764a7.95 7.95 0 0 1 0 15.9z"/><path style="fill:#666" d="M280.381 39.222H23.851C10.699 39.222 0 49.921 0 63.072v421.896c0 13.152 10.699 23.851 23.851 23.851h256.53c13.152 0 23.851-10.699 23.851-23.851V63.072c0-13.151-10.699-23.85-23.851-23.85z"/><path style="fill:#4c4c4c" d="M27.031 484.969V63.072c0-13.152 10.699-23.851 23.851-23.851H23.851C10.699 39.222 0 49.921 0 63.072v421.896c0 13.152 10.699 23.851 23.851 23.851h27.031c-13.152.001-23.851-10.698-23.851-23.85z"/><path style="fill:#aff078" d="M246.46 314.302H57.772c-8.781 0-15.901-7.119-15.901-15.901v-57.242c0-8.781 7.119-15.901 15.901-15.901H246.46c8.781 0 15.901 7.119 15.901 15.901v57.242c-.001 8.782-7.12 15.901-15.901 15.901z"/><path style="fill:#f2f2f2" d="M246.46 225.259h-7.95l-89.043 89.043h36.571l76.046-76.046c-1.367-7.393-7.835-12.997-15.624-12.997zm-51.942 0-89.044 89.043h30.211l89.044-89.043z"/><path style="fill:#4c4c4c" d="M75.793 409.176c-17.243 0-31.271-14.029-31.271-31.271 0-17.243 14.029-31.271 31.271-31.271s31.271 14.029 31.271 31.271-14.028 31.271-31.271 31.271zm0-46.642c-8.475 0-15.371 6.896-15.371 15.371 0 8.475 6.896 15.371 15.371 15.371s15.371-6.896 15.371-15.371c0-8.475-6.896-15.371-15.371-15.371zm152.646 46.642c-17.243 0-31.271-14.029-31.271-31.271 0-17.243 14.029-31.271 31.271-31.271s31.271 14.029 31.271 31.271-14.028 31.271-31.271 31.271zm0-46.642c-8.475 0-15.371 6.896-15.371 15.371 0 8.475 6.896 15.371 15.371 15.371 8.475 0 15.371-6.896 15.371-15.371 0-8.475-6.896-15.371-15.371-15.371zm-76.323 46.642c-17.243 0-31.271-14.029-31.271-31.271 0-17.243 14.029-31.271 31.271-31.271 17.243 0 31.271 14.029 31.271 31.271s-14.028 31.271-31.271 31.271zm0-46.642c-8.475 0-15.371 6.896-15.371 15.371 0 8.475 6.896 15.371 15.371 15.371 8.475 0 15.371-6.896 15.371-15.371 0-8.475-6.896-15.371-15.371-15.371zM75.793 481.259c-17.243 0-31.271-14.029-31.271-31.271 0-17.243 14.029-31.271 31.271-31.271s31.271 14.029 31.271 31.271-14.028 31.271-31.271 31.271zm0-46.642c-8.475 0-15.371 6.896-15.371 15.371 0 8.475 6.896 15.371 15.371 15.371s15.371-6.896 15.371-15.371c0-8.475-6.896-15.371-15.371-15.371zm152.646 46.642c-17.243 0-31.271-14.029-31.271-31.271 0-17.243 14.029-31.271 31.271-31.271s31.271 14.029 31.271 31.271-14.028 31.271-31.271 31.271zm0-46.642c-8.475 0-15.371 6.896-15.371 15.371 0 8.475 6.896 15.371 15.371 15.371 8.475 0 15.371-6.896 15.371-15.371 0-8.475-6.896-15.371-15.371-15.371zm-76.323 46.642c-17.243 0-31.271-14.029-31.271-31.271 0-17.243 14.029-31.271 31.271-31.271 17.243 0 31.271 14.029 31.271 31.271s-14.028 31.271-31.271 31.271zm0-46.642c-8.475 0-15.371 6.896-15.371 15.371 0 8.475 6.896 15.371 15.371 15.371 8.475 0 15.371-6.896 15.371-15.371 0-8.475-6.896-15.371-15.371-15.371z"/><circle style="fill:#b2b2b2" cx="75.793" cy="377.905" r="23.321"/><circle style="fill:#b2b2b2" cx="228.439" cy="377.905" r="23.321"/><circle style="fill:#b2b2b2" cx="152.116" cy="377.905" r="23.321"/><circle style="fill:#ff7452" cx="75.793" cy="449.988" r="23.321"/><circle style="fill:#5ac779" cx="228.439" cy="449.988" r="23.321"/><circle style="fill:#ffd652" cx="152.116" cy="449.988" r="23.321"/><path style="fill:#f2f2f2" d="M231.619 3.18H72.613c-13.152 0-23.851 10.699-23.851 23.851v170.137H255.47V27.031c0-13.152-10.699-23.851-23.851-23.851z"/><path style="fill:#e5e5e5" d="M103.412 3.18H72.613c-13.152 0-23.851 10.699-23.851 23.851v170.137h178.299L103.412 3.18z"/><path style="fill:#4c4c4c" d="M266.6 199.288H37.631a7.95 7.95 0 0 1 0-15.9H266.6a7.95 7.95 0 0 1 0 15.9z"/><path style="fill:#999" d="M160.596 55.122h-59.362a7.95 7.95 0 0 1 0-15.9h59.362a7.95 7.95 0 0 1 0 15.9zm42.402 50.882H101.234a7.95 7.95 0 0 1 0-15.9h101.764a7.95 7.95 0 0 1 0 15.9zm0 53.002H101.234a7.95 7.95 0 0 1 0-15.9h101.764a7.95 7.95 0 0 1 0 15.9z"/></svg>