<svg xmlns="http://www.w3.org/2000/svg" viewBox="0 0 290 290" style="enable-background:new 0 0 512 512" xml:space="preserve" width="290" height="290"><path style="fill:#ffd652" d="M276.491 51.035H107.174c-7.449 0 -13.509 6.06 -13.509 13.509v104.472c0 7.449 6.06 13.509 13.509 13.509h169.317c7.449 0 13.509 -6.06 13.509 -13.509V64.544c0 -7.449 -6.06 -13.509 -13.509 -13.509z"/><path style="fill:#fb9d46" d="M107.174 51.035c-7.449 0 -13.509 6.06 -13.509 13.509v104.472c0 7.449 6.06 13.509 13.509 13.509h73.851V51.035H107.174z"/><path style="fill:#fff" d="M130.29 144.4h124.286a4.503 4.503 0 0 0 4.503 -4.503v-12.609a4.503 4.503 0 0 0 -4.503 -4.503H130.29a4.503 4.503 0 0 0 -4.503 4.503v12.609a4.503 4.503 0 0 0 4.503 4.503z"/><path style="fill:#e5e5e5" d="M125.787 122.784h55.238v21.615h-55.238z"/><path style="fill:#5ac779" d="M98.168 85.559H290v24.017H98.168z"/><path style="fill:#00a085" d="M98.168 85.559h82.857v24.017H98.168z"/><path style="fill:#fb9d46" d="M254.276 163.312H196.636a4.503 4.503 0 0 1 0 -9.006h57.64a4.503 4.503 0 0 1 0 9.006z"/><path style="fill:#666" d="M158.81 22.216H13.509C6.06 22.216 0 28.276 0 35.724v238.965c0 7.449 6.06 13.509 13.509 13.509h145.3c7.449 0 13.509 -6.06 13.509 -13.509V35.724c0 -7.449 -6.06 -13.509 -13.509 -13.509z"/><path style="fill:#4c4c4c" d="M15.311 274.689V35.724c0 -7.449 6.06 -13.509 13.509 -13.509H13.509C6.06 22.216 0 28.276 0 35.724v238.965c0 7.449 6.06 13.509 13.509 13.509h15.311c-7.449 0.001 -13.509 -6.059 -13.509 -13.509z"/><path style="fill:#aff078" d="M139.596 178.023H32.722c-4.974 0 -9.006 -4.032 -9.006 -9.006v-32.422c0 -4.974 4.032 -9.006 9.006 -9.006H139.596c4.974 0 9.006 4.032 9.006 9.006v32.422c-0.001 4.974 -4.033 9.006 -9.006 9.006z"/><path style="fill:#f2f2f2" d="M139.596 127.588h-4.503l-50.435 50.435h20.714l43.073 -43.073c-0.774 -4.187 -4.438 -7.362 -8.85 -7.362zm-29.42 0 -50.435 50.435h17.112l50.435 -50.435z"/><path style="fill:#4c4c4c" d="M42.93 231.76c-9.767 0 -17.712 -7.946 -17.712 -17.712 0 -9.767 7.946 -17.712 17.712 -17.712s17.712 7.946 17.712 17.712 -7.946 17.712 -17.712 17.712zm0 -26.418c-4.8 0 -8.706 3.906 -8.706 8.706 0 4.8 3.906 8.706 8.706 8.706s8.706 -3.906 8.706 -8.706c0 -4.8 -3.906 -8.706 -8.706 -8.706zm86.46 26.418c-9.767 0 -17.712 -7.946 -17.712 -17.712 0 -9.767 7.946 -17.712 17.712 -17.712s17.712 7.946 17.712 17.712 -7.946 17.712 -17.712 17.712zm0 -26.418c-4.8 0 -8.706 3.906 -8.706 8.706 0 4.8 3.906 8.706 8.706 8.706 4.8 0 8.706 -3.906 8.706 -8.706 0 -4.8 -3.906 -8.706 -8.706 -8.706zm-43.23 26.418c-9.767 0 -17.712 -7.946 -17.712 -17.712 0 -9.767 7.946 -17.712 17.712 -17.712 9.767 0 17.712 7.946 17.712 17.712s-7.946 17.712 -17.712 17.712zm0 -26.418c-4.8 0 -8.706 3.906 -8.706 8.706 0 4.8 3.906 8.706 8.706 8.706 4.8 0 8.706 -3.906 8.706 -8.706 0 -4.8 -3.906 -8.706 -8.706 -8.706zM42.93 272.588c-9.767 0 -17.712 -7.946 -17.712 -17.712 0 -9.767 7.946 -17.712 17.712 -17.712s17.712 7.946 17.712 17.712 -7.946 17.712 -17.712 17.712zm0 -26.418c-4.8 0 -8.706 3.906 -8.706 8.706 0 4.8 3.906 8.706 8.706 8.706s8.706 -3.906 8.706 -8.706c0 -4.8 -3.906 -8.706 -8.706 -8.706zm86.46 26.418c-9.767 0 -17.712 -7.946 -17.712 -17.712 0 -9.767 7.946 -17.712 17.712 -17.712s17.712 7.946 17.712 17.712 -7.946 17.712 -17.712 17.712zm0 -26.418c-4.8 0 -8.706 3.906 -8.706 8.706 0 4.8 3.906 8.706 8.706 8.706 4.8 0 8.706 -3.906 8.706 -8.706 0 -4.8 -3.906 -8.706 -8.706 -8.706zm-43.23 26.418c-9.767 0 -17.712 -7.946 -17.712 -17.712 0 -9.767 7.946 -17.712 17.712 -17.712 9.767 0 17.712 7.946 17.712 17.712s-7.946 17.712 -17.712 17.712zm0 -26.418c-4.8 0 -8.706 3.906 -8.706 8.706 0 4.8 3.906 8.706 8.706 8.706 4.8 0 8.706 -3.906 8.706 -8.706 0 -4.8 -3.906 -8.706 -8.706 -8.706z"/><path style="fill:#b2b2b2" cx="75.793" cy="377.905" r="23.321" d="M56.139 214.048A13.209 13.209 0 0 1 42.93 227.257A13.209 13.209 0 0 1 29.72 214.048A13.209 13.209 0 0 1 56.139 214.048z"/><path style="fill:#b2b2b2" cx="228.439" cy="377.905" r="23.321" d="M142.598 214.048A13.209 13.209 0 0 1 129.389 227.257A13.209 13.209 0 0 1 116.18 214.048A13.209 13.209 0 0 1 142.598 214.048z"/><path style="fill:#b2b2b2" cx="152.116" cy="377.905" r="23.321" d="M99.369 214.048A13.209 13.209 0 0 1 86.159 227.257A13.209 13.209 0 0 1 72.95 214.048A13.209 13.209 0 0 1 99.369 214.048z"/><path style="fill:#ff7452" cx="75.793" cy="449.988" r="23.321" d="M56.139 254.876A13.209 13.209 0 0 1 42.93 268.085A13.209 13.209 0 0 1 29.72 254.876A13.209 13.209 0 0 1 56.139 254.876z"/><path style="fill:#5ac779" cx="228.439" cy="449.988" r="23.321" d="M142.598 254.876A13.209 13.209 0 0 1 129.389 268.085A13.209 13.209 0 0 1 116.18 254.876A13.209 13.209 0 0 1 142.598 254.876z"/><path style="fill:#ffd652" cx="152.116" cy="449.988" r="23.321" d="M99.369 254.876A13.209 13.209 0 0 1 86.159 268.085A13.209 13.209 0 0 1 72.95 254.876A13.209 13.209 0 0 1 99.369 254.876z"/><path style="fill:#f2f2f2" d="M131.19 1.801H41.128c-7.449 0 -13.509 6.06 -13.509 13.509v96.367H144.7V15.311c0 -7.449 -6.06 -13.509 -13.509 -13.509z"/><path style="fill:#e5e5e5" d="M58.573 1.801H41.128c-7.449 0 -13.509 6.06 -13.509 13.509v96.367h100.99L58.573 1.801z"/><path style="fill:#4c4c4c" d="M151.004 112.878H21.314a4.503 4.503 0 0 1 0 -9.006H151.004a4.503 4.503 0 0 1 0 9.006z"/><path style="fill:#999" d="M90.963 31.221h-33.623a4.503 4.503 0 0 1 0 -9.006h33.623a4.503 4.503 0 0 1 0 9.006zm24.017 28.82H57.34a4.503 4.503 0 0 1 0 -9.006h57.64a4.503 4.503 0 0 1 0 9.006zm0 30.021H57.34a4.503 4.503 0 0 1 0 -9.006h57.64a4.503 4.503 0 0 1 0 9.006z"/></svg>